<svg xmlns="http://www.w3.org/2000/svg" viewBox="0 0 420 170" width="420" height="170">
  <defs>
    <radialGradient id="g1" cx="25%" cy="50%" r="55%">
      <stop offset="0%" style="stop-color:#9d174d;stop-opacity:0.4"/>
      <stop offset="100%" style="stop-color:#1a0a14;stop-opacity:0"/>
    </radialGradient>
    <radialGradient id="g2" cx="75%" cy="50%" r="55%">
      <stop offset="0%" style="stop-color:#be185d;stop-opacity:0.35"/>
      <stop offset="100%" style="stop-color:#1a0a14;stop-opacity:0"/>
    </radialGradient>
  </defs>
  <rect width="420" height="170" fill="#1a0a14"/>
  <rect width="420" height="170" fill="url(#g1)"/>
  <rect width="420" height="170" fill="url(#g2)"/>
  <!-- Left grid -->
  <g fill="#2a1020" stroke="#9d174d" stroke-width="1.2">
    <rect x="15" y="25" width="30" height="30" rx="2"/><rect x="50" y="25" width="30" height="30" rx="2"/>
    <rect x="85" y="25" width="30" height="30" rx="2"/><rect x="120" y="25" width="30" height="30" rx="2"/>
    <rect x="15" y="60" width="30" height="30" rx="2"/><rect x="50" y="60" width="30" height="30" rx="2"/>
    <rect x="85" y="60" width="30" height="30" rx="2"/><rect x="120" y="60" width="30" height="30" rx="2"/>
    <rect x="15" y="95" width="30" height="30" rx="2"/><rect x="50" y="95" width="30" height="30" rx="2"/>
    <rect x="85" y="95" width="30" height="30" rx="2"/><rect x="120" y="95" width="30" height="30" rx="2"/>
    <rect x="15" y="130" width="30" height="30" rx="2"/><rect x="50" y="130" width="30" height="30" rx="2"/>
    <rect x="85" y="130" width="30" height="30" rx="2"/><rect x="120" y="130" width="30" height="30" rx="2"/>
  </g>
  <!-- Left mines -->
  <circle cx="30" cy="40" r="8" fill="#f43f5e" opacity="0.9"/>
  <circle cx="100" cy="75" r="8" fill="#f43f5e" opacity="0.9"/>
  <circle cx="135" cy="145" r="8" fill="#f43f5e" opacity="0.9"/>
  <!-- Explosion -->
  <text x="135" y="118" text-anchor="middle" font-size="18" fill="#fbbf24">💥</text>
  <!-- VS center -->
  <text x="210" y="95" text-anchor="middle" font-family="Arial Black,sans-serif" font-size="46" font-weight="900" fill="#f472b6" opacity="0.9">VS</text>
  <!-- Right grid -->
  <g fill="#2a1020" stroke="#be185d" stroke-width="1.2">
    <rect x="270" y="25" width="30" height="30" rx="2"/><rect x="305" y="25" width="30" height="30" rx="2"/>
    <rect x="340" y="25" width="30" height="30" rx="2"/><rect x="375" y="25" width="30" height="30" rx="2"/>
    <rect x="270" y="60" width="30" height="30" rx="2"/><rect x="305" y="60" width="30" height="30" rx="2"/>
    <rect x="340" y="60" width="30" height="30" rx="2"/><rect x="375" y="60" width="30" height="30" rx="2"/>
    <rect x="270" y="95" width="30" height="30" rx="2"/><rect x="305" y="95" width="30" height="30" rx="2"/>
    <rect x="340" y="95" width="30" height="30" rx="2"/><rect x="375" y="95" width="30" height="30" rx="2"/>
    <rect x="270" y="130" width="30" height="30" rx="2"/><rect x="305" y="130" width="30" height="30" rx="2"/>
    <rect x="340" y="130" width="30" height="30" rx="2"/><rect x="375" y="130" width="30" height="30" rx="2"/>
  </g>
  <!-- Right mines -->
  <circle cx="320" cy="40" r="8" fill="#f472b6" opacity="0.9"/>
  <circle cx="285" cy="110" r="8" fill="#f472b6" opacity="0.9"/>
  <circle cx="390" cy="75" r="8" fill="#f472b6" opacity="0.9"/>
  <circle cx="355" cy="145" r="8" fill="#f472b6" opacity="0.9"/>
</svg>
