<svg xmlns="http://www.w3.org/2000/svg" viewBox="0 0 420 170" font-family="'Courier New',monospace">
  <rect width="420" height="170" fill="#060a06"/>
  <!-- grid -->
  <defs>
    <pattern id="g" width="20" height="20" patternUnits="userSpaceOnUse">
      <path d="M20 0H0V20" fill="none" stroke="#39ff14" stroke-width="0.4" opacity="0.15"/>
    </pattern>
  </defs>
  <rect width="420" height="170" fill="url(#g)"/>

  <!-- terminal window -->
  <rect x="18" y="18" width="200" height="134" rx="3" fill="#0a0a0a" stroke="#1a3d1a" stroke-width="1"/>
  <rect x="18" y="18" width="200" height="18" rx="3" fill="#1c1c1c"/>
  <circle cx="30" cy="27" r="4" fill="#ff5f56"/>
  <circle cx="42" cy="27" r="4" fill="#ffbd2e"/>
  <circle cx="54" cy="27" r="4" fill="#27c93f"/>

  <!-- terminal text -->
  <text x="26" y="52" font-size="7.5" fill="#39ff14">&gt; FATAL ERROR DETECTED</text>
  <text x="26" y="65" font-size="7.5" fill="#39ff14">&gt; Deleting: System32\ntdll.dll</text>
  <rect x="26" y="69" width="80" height="4" rx="1" fill="#39ff14" opacity="0.8"/>
  <text x="26" y="84" font-size="7.5" fill="#39ff14">&gt; Deleting: System32\kernel32.dll</text>
  <rect x="26" y="88" width="80" height="4" rx="1" fill="#39ff14" opacity="0.8"/>
  <text x="26" y="103" font-size="7.5" fill="#39ff14" opacity="0.7">&gt; Deleting: /bin/bash</text>
  <text x="26" y="116" font-size="7.5" fill="#39ff14" opacity="0.7">&gt; Deleting: /etc/passwd</text>
  <text x="26" y="134" font-size="9" fill="#ff2442">&gt; SYSTEM ANNIHILATED</text>

  <!-- right: title -->
  <text x="234" y="58" font-size="11" fill="#3d6b3d" letter-spacing="1">SYSTEM 32</text>
  <text x="234" y="74" font-size="11" fill="#3d6b3d" letter-spacing="1">ROULETTE</text>
  <line x1="234" y1="80" x2="400" y2="80" stroke="#1a3d1a" stroke-width="1"/>

  <!-- minigames -->
  <text x="234" y="98" font-size="8.5" fill="#39ff14">⌨ Command Injection</text>
  <text x="234" y="112" font-size="8.5" fill="#39ff14">🖱 Buffer Overflow</text>
  <text x="234" y="126" font-size="8.5" fill="#39ff14">🧠 Memory Dump</text>

  <!-- skull -->
  <text x="370" y="155" font-size="28" fill="#39ff14" opacity="0.25">💀</text>

  <!-- jk tag -->
  <text x="234" y="150" font-size="7" fill="#3d6b3d">// loser gets "deleted" (jk)</text>
</svg>
